<svg xmlns="http://www.w3.org/2000/svg" viewBox="0 0 24 24" width="48" height="48">
    <defs>
      <style>
        @keyframes draw { 0% { stroke-dashoffset:1214; } 100% { stroke-dashoffset:0; } }
        @keyframes fpop { 0% { opacity:0; transform:scale(0); } 60% { opacity:1; transform:scale(1.2); } 100% { opacity:1; transform:scale(1); } }
        @keyframes bounce {
          0%   { transform:scale(1) rotate(0deg); }
          30%  { transform:scale(1.18) rotate(3deg); }
          55%  { transform:scale(0.92) rotate(-2deg); }
          78%  { transform:scale(1.06) rotate(1deg); }
          100% { transform:scale(1) rotate(0deg); }
        }
      .p0 { animation: draw 1.4s ease-in-out 0.0s forwards; stroke-dasharray:84; stroke-dashoffset:84; }
      .p1 { animation: draw 20.233333333333334s ease-in-out 0.15s forwards; stroke-dasharray:1214; stroke-dashoffset:1214; }
        .bx { animation: bounce 0.7s cubic-bezier(0.34,1.56,0.64,1) 20.583333333333332s forwards; }
      </style>
    </defs>
  <g class="bx">
      <path class="p0" d="M12 15a3 3 0 1 0 0-6 3 3 0 0 0 0 6z" fill="none" stroke="#CC785C" stroke-width="2" stroke-linecap="round" stroke-linejoin="round"/>
      <path class="p1" d="M19.4 15a1.65 1.65 0 0 0 .33 1.82l.06.06a2 2 0 0 1 0 2.83 2 2 0 0 1-2.83 0l-.06-.06a1.65 1.65 0 0 0-1.82-.33 1.65 1.65 0 0 0-1 1.51V21a2 2 0 0 1-2 2 2 2 0 0 1-2-2v-.09A1.65 1.65 0 0 0 9 19.4a1.65 1.65 0 0 0-1.82.33l-.06.06a2 2 0 0 1-2.83 0 2 2 0 0 1 0-2.83l.06-.06A1.65 1.65 0 0 0 4.68 15a1.65 1.65 0 0 0-1.51-1H3a2 2 0 0 1-2-2 2 2 0 0 1 2-2h.09A1.65 1.65 0 0 0 4.6 9a1.65 1.65 0 0 0-.33-1.82l-.06-.06a2 2 0 0 1 0-2.83 2 2 0 0 1 2.83 0l.06.06A1.65 1.65 0 0 0 9 4.68a1.65 1.65 0 0 0 1-1.51V3a2 2 0 0 1 2-2 2 2 0 0 1 2 2v.09a1.65 1.65 0 0 0 1 1.51 1.65 1.65 0 0 0 1.82-.33l.06-.06a2 2 0 0 1 2.83 0 2 2 0 0 1 0 2.83l-.06.06A1.65 1.65 0 0 0 19.4 9a1.65 1.65 0 0 0 1.51 1H21a2 2 0 0 1 2 2 2 2 0 0 1-2 2h-.09a1.65 1.65 0 0 0-1.51 1z" fill="none" stroke="#CC785C" stroke-width="2" stroke-linecap="round" stroke-linejoin="round"/>
  </g>
</svg>